<svg width="48" height="48" viewBox="0 0 48 48" fill="none" xmlns="http://www.w3.org/2000/svg">
  <path d="M7.68 21.12V33.36C7.68 34.56 8.64 35.52 9.84 35.52C11.04 35.52 12 34.56 12 33.36V21.12C12 19.92 11.04 18.96 9.84 18.96C8.64 18.96 7.68 19.92 7.68 21.12Z" fill="white"/>
  <path d="M36 21.12V33.36C36 34.56 36.96 35.52 38.16 35.52C39.36 35.52 40.32 34.56 40.32 33.36V21.12C40.32 19.92 39.36 18.96 38.16 18.96C36.96 18.96 36 19.92 36 21.12Z" fill="white"/>
  <path d="M31.68 10.32L34.08 6.24C34.32 5.76 34.08 5.28 33.6 5.04C33.12 4.8 32.64 5.04 32.4 5.52L29.76 9.84C27.6 9.12 25.2 8.64 22.8 8.64C20.4 8.64 18 9.12 15.84 9.84L13.2 5.52C12.96 5.04 12.48 4.8 12 5.04C11.52 5.28 11.28 5.76 11.52 6.24L13.92 10.32C9.12 12.96 5.76 17.52 5.28 23.04H40.32C39.84 17.52 36.48 12.96 31.68 10.32ZM16.8 18C15.84 18 15.12 17.28 15.12 16.32C15.12 15.36 15.84 14.64 16.8 14.64C17.76 14.64 18.48 15.36 18.48 16.32C18.48 17.28 17.76 18 16.8 18ZM28.8 18C27.84 18 27.12 17.28 27.12 16.32C27.12 15.36 27.84 14.64 28.8 14.64C29.76 14.64 30.48 15.36 30.48 16.32C30.48 17.28 29.76 18 28.8 18Z" fill="white"/>
  <path d="M13.2 36.96C13.2 38.64 14.64 40.08 16.32 40.08H17.04V44.88C17.04 46.08 18 47.04 19.2 47.04C20.4 47.04 21.36 46.08 21.36 44.88V40.08H24.24V44.88C24.24 46.08 25.2 47.04 26.4 47.04C27.6 47.04 28.56 46.08 28.56 44.88V40.08H29.28C30.96 40.08 32.4 38.64 32.4 36.96V23.28H13.2V36.96Z" fill="white"/>
</svg>
