<svg width="48" height="48" viewBox="0 0 48 48" fill="none" xmlns="http://www.w3.org/2000/svg">
  <path d="M24 4.8C13.44 4.8 4.8 13.44 4.8 24C4.8 34.56 13.44 43.2 24 43.2C34.56 43.2 43.2 34.56 43.2 24C43.2 13.44 34.56 4.8 24 4.8ZM39.6 16.8H33.12C32.4 13.44 31.2 10.32 29.52 7.68C33.84 9.12 37.44 12.48 39.6 16.8ZM24 8.64C26.16 11.28 27.84 14.4 28.8 17.76H19.2C20.16 14.4 21.84 11.28 24 8.64ZM8.88 28.8C8.4 27.36 8.16 25.68 8.16 24C8.16 22.32 8.4 20.64 8.88 19.2H16.32C16.08 20.64 16.08 22.32 16.08 24C16.08 25.68 16.32 27.36 16.32 28.8H8.88ZM8.4 32.16H14.88C15.6 35.52 16.8 38.64 18.48 41.28C14.16 39.84 10.56 36.48 8.4 32.16ZM14.88 16.8H8.4C10.56 12.48 14.16 9.12 18.48 7.68C16.8 10.32 15.6 13.44 14.88 16.8ZM24 39.36C21.84 36.72 20.16 33.6 19.2 30.24H28.8C27.84 33.6 26.16 36.72 24 39.36ZM29.76 27.36H18.24C17.76 25.92 17.52 24.48 17.52 24C17.52 23.52 17.52 22.56 18.24 20.64H29.76C30.24 22.08 30.48 23.52 30.48 24C30.48 24.48 30.48 25.92 29.76 27.36ZM29.52 40.32C31.2 37.68 32.4 34.56 33.12 31.2H39.6C37.44 35.52 33.84 38.88 29.52 40.32ZM33.84 28.8C34.08 27.36 34.08 25.68 34.08 24C34.08 22.32 33.84 20.64 33.84 19.2H41.28C41.76 20.64 42 22.32 42 24C42 25.68 41.76 27.36 41.28 28.8H33.84Z" fill="white"/>
</svg>
