<svg width="48" height="48" viewBox="0 0 48 48" fill="none" xmlns="http://www.w3.org/2000/svg">
  <path d="M38.7144 25.7466C38.6628 19.5088 43.4848 16.4792 43.7201 16.3273C40.8673 12.2036 36.4465 11.6693 34.8721 11.6177C31.1345 11.2325 27.5072 13.7797 25.5969 13.7797C23.6481 13.7797 20.6441 11.6564 17.5373 11.7209C13.5041 11.7855 9.73051 14.0359 7.64163 17.5148C3.36035 24.5629 6.52035 35.0277 10.6313 40.7141C12.6897 43.5025 15.0753 46.6481 18.1693 46.5449C21.2117 46.4289 22.3073 44.6645 25.9473 44.6645C29.5489 44.6645 30.5673 46.5449 33.7273 46.4673C36.9773 46.4289 38.9905 43.6277 41.0105 40.8136C43.3833 37.6037 44.3629 34.4453 44.4017 34.2805C44.3244 34.2547 38.7788 32.1185 38.7144 25.7466Z" fill="white"/>
  <path d="M32.0129 7.87012C33.7001 5.81012 34.8473 2.96364 34.5345 0.0771484C31.9873 0.193148 28.8673 1.80364 27.1157 3.81724C25.5541 5.59324 24.1897 8.53084 24.5361 11.3128C27.3761 11.5352 30.2801 9.91804 32.0129 7.87012Z" fill="white"/>
</svg>
